<?xml version="1.0" standalone="no"?>
<!DOCTYPE svg PUBLIC "-//W3C//DTD SVG 20010904//EN"
 "http://www.w3.org/TR/2001/REC-SVG-20010904/DTD/svg10.dtd">
<svg version="1.0" xmlns="http://www.w3.org/2000/svg"
 width="1024.000000pt" height="1024.000000pt" viewBox="0 0 1024.000000 1024.000000"
 preserveAspectRatio="xMidYMid meet">

<g transform="translate(0.000000,1024.000000) scale(0.100000,-0.100000)"
fill="#000000" stroke="none">
<path d="M2405 9993 c-420 -15 -683 -55 -920 -139 -476 -170 -877 -527 -1095
-974 -56 -116 -129 -333 -159 -480 -71 -337 -71 -311 -71 -3213 0 -2578 1
-2699 36 -2987 30 -257 91 -475 192 -690 220 -473 604 -833 1091 -1024 101
-40 286 -91 366 -100 28 -3 1 6 -60 20 -153 36 -324 94 -449 152 -378 179
-714 513 -893 888 -70 148 -53 152 22 6 93 -180 288 -424 443 -556 169 -144
282 -219 457 -302 274 -130 541 -192 923 -214 234 -13 5312 -13 5605 0 441 21
683 75 982 220 397 193 737 532 937 935 42 84 71 118 42 49 -124 -296 -269
-501 -509 -717 -120 -108 -248 -194 -427 -287 -195 -100 -358 -153 -593 -190
-60 -10 -95 -18 -76 -19 78 -2 317 48 456 96 560 194 1041 687 1225 1254 69
212 112 453 130 724 6 103 10 1080 10 2720 1 2414 -1 2662 -26 2870 -13 112
-75 455 -94 520 -95 329 -224 556 -455 802 -312 331 -725 537 -1205 602 -239
33 -331 34 -3060 36 -1510 1 -2781 0 -2825 -2z m5175 -57 c283 -3 535 -8 560
-13 l45 -9 -69 -7 c-38 -3 -73 -10 -78 -15 -10 -10 60 -27 172 -42 41 -6 89
-14 105 -19 17 -6 50 -13 75 -16 70 -11 286 -72 385 -110 293 -112 538 -290
706 -512 73 -95 129 -178 129 -187 0 -3 25 -43 55 -89 124 -191 198 -398 251
-697 41 -240 44 -331 54 -1685 16 -2268 12 -3092 -15 -3380 -2 -27 -7 -115
-10 -195 -8 -205 -34 -528 -50 -640 -8 -52 -25 -126 -38 -165 -61 -176 -111
-315 -136 -375 -33 -79 -45 -120 -32 -120 9 0 131 242 131 260 0 5 4 11 9 14
13 8 -5 -72 -32 -144 -110 -294 -313 -571 -577 -792 -133 -111 -211 -160 -395
-249 -182 -87 -310 -131 -545 -188 -233 -57 -277 -63 -530 -70 -353 -11 -5194
-2 -5425 9 -494 26 -800 122 -1165 365 -299 199 -528 458 -680 770 -66 136
-82 180 -108 295 -44 190 -75 439 -79 615 -1 83 -3 418 -3 745 0 359 -4 601
-10 610 -6 10 -10 -81 -12 -260 -3 -423 -3 -493 -8 -670 -9 -382 -18 1401 -14
2990 2 943 5 1730 6 1748 3 61 18 32 17 -33 -1 -36 1 -69 5 -72 3 -3 6 7 6 23
0 222 44 641 85 821 41 179 223 582 320 708 125 164 317 322 570 469 98 57
288 132 453 180 136 39 197 75 108 63 -68 -10 -55 -2 39 22 81 20 307 49 425
53 99 4 4715 -1 5300 -6z m-7312 -2161 c-1 -14 -6 -25 -10 -25 -10 0 -10 13
-2 34 9 23 14 19 12 -9z m9659 -5977 c-3 -8 -6 -5 -6 6 -1 11 2 17 5 13 3 -3
4 -12 1 -19z"/>
<path d="M2445 9449 c-306 -25 -557 -103 -802 -248 -142 -84 -247 -168 -370
-295 -157 -161 -215 -242 -326 -456 -49 -95 -137 -336 -137 -375 1 -11 16 30
35 90 18 61 50 145 70 189 40 88 208 348 250 386 l28 25 -13 -25 c-7 -14 -30
-50 -51 -80 -133 -197 -244 -526 -276 -815 -5 -38 -6 -212 -3 -385 5 -287 5
-1759 2 -3815 -2 -823 0 -894 22 -1084 45 -378 262 -797 543 -1048 294 -262
571 -387 1003 -453 98 -15 140 -26 155 -40 11 -10 42 -29 69 -41 47 -21 48
-22 27 -33 -20 -11 -13 -14 59 -25 45 -7 84 -11 86 -8 2 2 -39 23 -91 46 -217
99 -423 267 -571 466 -126 171 -176 287 -298 685 -32 102 -118 372 -191 600
-74 228 -161 507 -194 620 -32 113 -82 284 -111 380 -141 475 -221 769 -224
825 -1 22 -9 51 -16 65 -8 14 -15 43 -16 66 -1 43 -23 104 -37 104 -5 0 -5 4
-2 10 3 6 1 10 -4 10 -6 0 -11 7 -11 15 0 8 7 15 15 15 8 0 15 5 15 10 0 6 -4
10 -9 10 -11 0 -6 62 8 88 7 13 7 22 -1 30 -13 13 -1 35 14 26 7 -5 8 -2 3 7
-12 19 -14 49 -3 49 5 0 6 5 3 10 -3 6 -2 10 3 10 5 0 8 20 7 45 -2 25 1 42 6
39 5 -3 9 -1 9 5 0 5 -5 13 -12 17 -7 5 -4 10 11 15 21 8 21 10 6 33 -9 14
-14 33 -11 43 3 10 5 22 5 27 0 5 5 13 13 17 10 7 9 9 -5 9 -14 0 -16 4 -8 19
6 10 7 22 3 26 -4 5 -2 5 4 2 7 -4 18 1 25 10 12 14 12 16 -1 8 -13 -8 -13 -7
-1 9 11 13 12 19 3 25 -17 10 -24 51 -9 51 8 0 8 3 0 11 -9 9 -8 16 4 27 8 8
12 25 10 36 -3 12 -8 32 -11 45 -3 13 1 33 9 44 13 18 13 23 -2 39 -10 12 -12
18 -4 18 7 0 9 5 6 10 -3 6 -2 10 2 10 5 0 7 19 6 43 l-2 42 13 -40 c8 -22 37
-116 64 -210 27 -93 85 -287 127 -430 43 -143 80 -270 82 -282 5 -20 6 -21 22
-5 30 31 44 52 33 52 -6 0 -14 -9 -17 -21 -4 -11 -9 -18 -12 -15 -3 3 2 17 11
31 16 24 12 30 -15 27 -3 -1 -6 6 -6 13 0 11 4 12 13 4 10 -8 12 -6 9 12 -6
29 13 53 30 39 24 -20 24 15 0 42 -24 28 -37 28 -28 0 3 -13 2 -14 -4 -4 -5 7
-17 10 -25 7 -21 -8 -30 19 -13 42 12 15 16 16 27 4 9 -10 9 -12 1 -7 -9 5
-11 2 -7 -9 5 -12 10 -13 20 -4 8 6 11 15 8 20 -3 5 -7 20 -10 34 -3 18 -1 23
10 19 8 -3 13 -15 10 -28 -4 -22 36 -76 56 -76 6 0 13 0 18 -1 4 0 12 -17 18
-37 7 -20 12 -31 13 -24 1 7 -31 124 -70 260 -38 136 -83 291 -98 345 -16 54
-26 99 -22 101 5 3 85 21 309 68 28 6 52 15 52 20 0 5 6 6 13 2 9 -6 9 -4 -1
8 -11 14 -10 16 7 11 18 -5 19 -3 8 21 -11 24 -13 25 -25 8 -7 -9 -17 -16 -21
-15 -4 1 -8 -4 -8 -12 0 -8 4 -12 9 -9 4 3 8 1 8 -4 0 -14 -39 -22 -47 -10 -4
7 -1 8 7 3 10 -6 12 -4 7 8 -16 40 -19 52 -9 38 7 -9 12 -10 16 -2 4 6 13 8
19 4 7 -3 5 2 -4 13 -13 16 -14 23 -3 44 8 14 14 19 14 13 0 -7 5 -13 11 -13
5 0 7 5 4 10 -4 6 -1 18 6 26 6 8 9 17 6 20 -7 8 -57 -48 -51 -58 3 -4 1 -8
-4 -8 -6 0 -13 7 -16 16 -9 24 -7 31 5 14 9 -13 10 -13 7 0 -3 8 -15 17 -28
20 -17 4 0 11 60 24 294 62 1572 386 1589 402 2 2 -21 83 -52 181 -51 162
-158 517 -328 1088 -34 116 -63 225 -63 242 -1 18 -4 33 -8 33 -3 0 -11 14
-17 31 -9 27 -8 33 12 49 12 10 24 16 27 14 2 -3 -2 -9 -10 -14 -8 -6 -10 -10
-4 -10 14 0 13 -42 -1 -52 -6 -5 -6 -8 2 -8 6 0 15 5 18 10 3 6 11 10 16 10 6
0 8 -4 5 -8 -3 -5 1 -9 9 -9 8 0 12 4 9 9 -6 10 10 11 19 1 4 -3 2 -12 -3 -18
-8 -10 -3 -12 18 -12 27 2 28 3 16 26 -10 18 -10 29 -2 38 14 18 20 17 47 -8
l23 -22 -7 34 c-4 19 -31 117 -60 219 -29 102 -56 199 -59 216 l-7 32 83 27
c46 15 216 75 378 132 549 195 1027 349 1494 483 98 28 180 49 183 47 2 -3 20
-52 39 -109 18 -56 31 -90 28 -75 -5 27 9 57 26 57 5 0 6 -10 2 -22 -5 -21 -4
-22 13 -8 14 11 19 12 22 3 3 -7 9 -13 15 -13 6 0 5 6 -2 15 -17 20 -5 31 16
15 13 -11 17 -11 24 -1 5 9 10 10 14 3 4 -6 13 -9 21 -5 8 3 15 -1 15 -8 0 -7
2 -10 5 -7 4 3 -5 46 -20 96 -14 50 -25 97 -25 105 0 18 252 87 274 75 9 -5
16 -5 16 0 0 9 53 8 69 -3 6 -3 11 -1 11 6 0 8 5 7 17 -2 11 -10 14 -10 9 -1
-8 13 19 13 42 -1 7 -5 12 -3 12 3 0 8 6 7 21 -1 15 -8 19 -8 15 0 -10 15 7
14 22 -1 8 -8 15 -9 20 -3 9 13 22 15 93 16 32 1 56 5 53 10 -9 15 3 10 21 -7
15 -15 18 -15 37 2 12 11 18 13 13 5 -6 -11 -3 -13 16 -6 26 8 108 10 149 3
14 -2 31 0 38 5 7 6 12 6 12 -1 0 -6 17 -11 38 -11 32 0 77 -7 77 -11 0 -1 10
-3 23 -6 15 -3 21 0 16 7 -4 8 -1 8 12 1 11 -5 46 -10 80 -11 33 -1 78 -8 100
-16 30 -10 43 -10 54 -2 8 7 2 -3 -13 -21 -38 -47 -35 -81 19 -219 112 -290
176 -470 186 -523 19 -110 -24 -186 -134 -235 -115 -51 -195 -47 -263 16 -50
46 -55 57 -191 414 -57 150 -112 279 -124 292 -17 17 -33 23 -68 23 -89 0
-162 -56 -162 -125 0 -26 82 -252 191 -530 84 -213 145 -286 268 -322 76 -22
218 -13 334 21 307 91 458 270 417 496 -6 36 -48 162 -92 280 -44 118 -95 256
-113 305 l-33 91 44 -2 c24 -1 44 2 44 7 0 5 7 5 17 2 12 -5 14 -3 8 7 -6 9
-4 11 5 5 7 -4 16 -2 20 6 6 9 12 10 22 2 7 -6 54 -11 103 -13 120 -2 153 -5
161 -13 3 -3 17 -2 30 3 21 8 31 2 86 -53 35 -35 87 -99 117 -143 61 -89 75
-107 66 -83 -5 14 0 16 25 13 19 -2 29 0 25 6 -3 6 1 10 9 10 8 0 18 -5 22
-12 4 -6 3 -8 -3 -5 -6 4 -14 0 -17 -9 -4 -10 0 -15 12 -13 34 3 44 -1 38 -17
-3 -9 -2 -12 5 -9 5 4 17 1 26 -7 14 -11 15 -11 9 0 -6 10 1 9 24 -3 26 -13
29 -19 19 -31 -6 -8 -9 -15 -5 -15 45 -9 66 -21 60 -32 -4 -7 -3 -9 1 -4 5 4
17 -1 28 -10 24 -22 -31 95 -127 269 l-37 66 48 -5 c26 -3 55 -9 65 -14 9 -5
30 -9 47 -9 16 0 33 -4 36 -10 3 -5 14 -10 23 -10 9 0 28 -9 42 -20 14 -11 33
-20 43 -20 9 0 17 -4 17 -8 0 -13 50 -13 50 1 2 39 98 -184 216 -501 120 -324
166 -444 249 -657 37 -93 91 -233 120 -310 77 -201 136 -352 195 -495 29 -69
72 -172 95 -230 24 -58 60 -143 80 -190 20 -47 48 -112 62 -144 33 -80 230
-487 240 -497 4 -4 5 432 2 969 -6 1060 -4 1018 -64 1225 -87 302 -291 612
-530 807 -302 246 -623 371 -1050 409 -69 7 -1058 10 -2652 11 -2702 0 -2621
1 -2852 -45 -228 -46 -566 -211 -726 -355 -22 -20 -60 -52 -85 -71 l-45 -34
29 38 c16 21 46 50 67 65 20 15 85 67 144 115 59 49 130 102 159 119 82 49
261 116 406 153 258 66 158 64 3075 69 1714 3 2663 2 2725 -5 420 -44 835
-276 1096 -614 202 -260 298 -460 380 -795 30 -123 35 -324 33 -1300 -2 -715
1 -981 9 -995 9 -15 11 232 12 1000 0 1071 -1 1113 -46 1354 -40 215 -169 498
-313 686 -66 87 -233 257 -326 332 -153 123 -385 248 -571 306 -83 26 -183 48
-309 69 -87 14 -5291 20 -5460 7z m2320 -225 c-27 -7 -70 -13 -95 -12 -42 1
-40 2 25 13 94 17 132 16 70 -1z m-235 -99 c11 3 20 4 20 1 0 -3 -60 -24 -132
-47 -222 -69 -590 -193 -833 -279 -338 -121 -837 -289 -1020 -344 -88 -27
-185 -56 -215 -66 -125 -41 -202 -59 -187 -43 4 3 -1 12 -11 20 -9 8 -11 12
-4 8 7 -4 12 0 12 9 0 14 12 20 33 17 4 0 6 2 6 6 -3 21 2 33 16 33 8 0 15 -6
16 -12 0 -10 2 -10 5 -1 3 7 0 21 -6 33 -8 15 -8 20 2 18 6 -2 12 6 13 17 0
11 7 20 15 20 8 0 15 -7 14 -16 -1 -9 5 -16 12 -16 7 0 11 4 8 9 -3 4 1 8 8 9
7 0 4 4 -7 9 -17 7 -17 9 -3 9 12 1 15 6 11 18 -4 11 -3 14 5 9 8 -4 11 3 9
22 -2 27 -4 29 -32 21 -16 -5 -34 -9 -40 -8 -5 0 134 49 310 108 176 60 373
127 439 150 123 43 137 46 135 34 -3 -21 2 -33 16 -33 8 0 15 5 15 10 0 6 -7
10 -15 10 -9 0 -12 6 -8 17 4 9 8 12 10 6 3 -8 14 -8 39 0 29 9 37 8 45 -4 5
-8 7 -19 5 -26 -6 -14 20 -11 35 4 6 6 18 9 25 6 10 -4 12 0 8 11 -3 9 -10 13
-15 10 -5 -3 -9 -1 -9 3 0 5 42 17 93 27 50 10 128 30 172 43 44 13 99 30 122
37 29 9 43 10 46 3 2 -7 24 -4 63 7 135 41 189 53 196 42 5 -8 13 -7 28 2 11
6 29 12 40 12 11 0 20 4 20 8 0 5 13 8 30 7 16 -1 27 2 24 6 -2 4 0 10 6 14 5
3 10 1 10 -4 0 -8 6 -7 19 1 15 9 23 9 37 -3 10 -8 15 -9 11 -2 -5 7 -1 12 10
12 36 1 53 4 53 10 0 3 10 6 23 7 72 3 191 15 195 19 3 3 11 0 18 -6 7 -6 22
-8 34 -4z m57 9 c-3 -3 -12 -4 -19 -1 -8 3 -5 6 6 6 11 1 17 -2 13 -5z m3023
-245 c0 -5 -4 -7 -10 -4 -5 3 -10 1 -10 -6 0 -7 -3 -10 -6 -6 -8 7 4 27 17 27
5 0 9 -5 9 -11z m-5460 -542 c0 -14 -118 -53 -128 -41 -4 3 -1 9 6 11 6 3 10
9 6 14 -7 12 3 11 27 -1 11 -6 19 -7 18 -3 -3 19 2 27 9 15 5 -7 16 -10 25 -6
9 3 14 10 11 15 -3 5 2 9 10 9 9 0 16 -6 16 -13z m732 -348 c6 -4 21 -6 34 -4
15 1 21 -2 17 -11 -3 -8 -10 -11 -16 -7 -24 15 -44 10 -39 -9 2 -10 2 -18 -1
-18 -4 0 -11 19 -17 43 -19 74 -20 83 -4 47 9 -19 21 -38 26 -41z m11 27 c4
-10 1 -13 -9 -9 -7 3 -14 9 -14 14 0 14 17 10 23 -5z m101 -98 c-4 -6 -2 -8 4
-4 6 3 13 2 16 -3 10 -15 -13 -24 -29 -11 -15 12 -9 44 6 34 5 -3 6 -10 3 -16z
m-692 -138 c69 -20 130 -72 166 -139 53 -102 38 -199 -44 -290 -24 -27 -44
-51 -44 -54 0 -2 28 -7 63 -9 121 -10 197 -64 250 -176 27 -58 29 -70 25 -145
-6 -101 -34 -163 -113 -241 -61 -62 -198 -135 -305 -163 -98 -26 -259 -23
-330 5 -193 78 -277 261 -150 327 35 18 83 19 113 4 12 -7 54 -42 93 -79 85
-80 141 -101 221 -81 126 32 193 102 193 201 0 61 -18 106 -56 142 -59 55
-130 62 -251 23 -99 -31 -108 -31 -144 4 -22 23 -29 39 -29 68 0 51 27 77 103
96 159 41 221 142 160 260 -17 34 -83 66 -135 67 -60 0 -142 -36 -182 -80 -20
-22 -36 -41 -36 -43 0 -2 -5 -30 -11 -62 -14 -77 -32 -111 -72 -135 -92 -57
-190 26 -173 146 23 169 215 317 474 364 55 10 161 5 214 -10z m6345 -136 c-3
-3 -12 -4 -19 -1 -8 3 -5 6 6 6 11 1 17 -2 13 -5z m17 -22 c3 -5 -1 -9 -9 -9
-8 0 -12 4 -9 9 3 4 7 8 9 8 2 0 6 -4 9 -8z m160 -417 c-4 -8 -11 -12 -16 -9
-6 4 -5 10 3 15 19 12 19 11 13 -6z m-7157 -1341 c-3 -3 -12 -4 -19 -1 -8 3
-5 6 6 6 11 1 17 -2 13 -5z m-72 -14 c-11 -5 -29 -8 -40 -8 -16 0 -15 2 5 8
34 11 60 11 35 0z m115 -55 c0 -12 -19 -12 -23 0 -4 9 -1 12 9 8 7 -3 14 -7
14 -8z m-58 -20 c-2 -4 2 -12 10 -16 17 -11 31 -11 24 -1 -3 5 1 9 9 9 10 0
11 -5 5 -17 -5 -10 -5 -21 0 -26 6 -6 2 -10 -10 -11 -13 -1 -26 9 -35 27 -8
16 -23 34 -32 39 -15 9 -14 10 7 7 14 -1 23 -7 22 -11z m-72 -26 c0 -5 -4 -9
-8 -9 -5 0 -9 7 -9 15 0 8 4 12 9 9 4 -3 8 -9 8 -15z m48 -16 c-5 -22 -21 -20
-23 4 -1 14 3 19 12 16 8 -3 13 -12 11 -20z m-158 -461 c0 -12 -3 -12 -15 -2
-8 7 -15 13 -15 15 0 1 7 2 15 2 8 0 15 -7 15 -15z m97 -242 c-3 -11 -1 -20 4
-20 5 0 9 -5 9 -12 0 -6 -9 -3 -20 7 -20 19 -28 41 -10 30 6 -3 10 -1 10 4 0
6 3 11 6 11 4 0 4 -9 1 -20z m-97 -86 c0 -8 -19 -13 -24 -6 -3 5 1 9 9 9 8 0
15 -2 15 -3z"/>
<path d="M2366 8577 c3 -10 9 -15 12 -12 3 3 0 11 -7 18 -10 9 -11 8 -5 -6z"/>
<path d="M4230 8443 c-78 -13 -184 -49 -262 -89 -104 -54 -186 -136 -212 -210
-55 -161 29 -329 188 -381 41 -13 98 -16 301 -17 239 -1 252 -2 292 -24 101
-53 97 -180 -7 -250 -18 -12 -65 -32 -103 -43 -121 -37 -210 -13 -279 75 -56
71 -88 90 -142 84 -100 -12 -144 -95 -97 -186 29 -55 98 -117 166 -149 154
-71 450 -22 631 106 113 79 166 171 166 291 1 92 -24 159 -83 224 -87 95 -106
100 -441 106 -270 5 -288 6 -314 26 -42 31 -48 70 -21 124 18 38 33 50 89 79
47 23 86 35 131 38 77 7 100 -4 178 -81 48 -47 63 -56 92 -56 83 0 137 47 137
118 0 146 -199 251 -410 215z"/>
<path d="M769 7858 c-12 -77 -14 -486 -14 -2378 0 -2439 2 -2787 13 -2775 4 3
8 993 9 2198 1 1206 4 2384 6 2620 1 235 2 427 1 427 -1 0 -8 -42 -15 -92z"/>
<path d="M7910 7868 c-235 -128 -1140 -535 -1675 -753 -253 -103 -255 -104
-255 -115 0 -51 768 -1865 809 -1912 22 -25 1261 586 1695 834 77 45 160 92
183 105 24 14 45 28 48 33 3 4 -25 77 -61 162 -142 329 -396 973 -591 1498
-36 96 -68 178 -72 182 -3 4 -40 -11 -81 -34z m-475 -712 c45 -19 24 26 205
-451 39 -104 75 -195 78 -201 5 -9 23 -6 67 12 71 30 114 26 145 -13 45 -57
16 -114 -79 -157 -34 -15 -61 -29 -61 -31 0 -1 16 -44 35 -94 39 -101 41 -119
20 -161 -28 -54 -133 -88 -185 -60 -10 5 -30 42 -45 82 -15 40 -34 88 -41 105
l-13 33 -73 -34 c-191 -90 -401 -176 -426 -176 -65 0 -132 66 -132 130 0 14
13 68 29 120 31 104 179 588 216 712 37 121 40 125 155 171 78 32 64 30 105
13z"/>
<path d="M7317 6813 c-22 -77 -161 -541 -164 -550 -3 -7 0 -13 6 -13 12 0 157
59 272 112 l66 30 -69 181 c-39 100 -75 196 -80 212 -14 41 -24 50 -31 28z"/>
<path d="M3091 7854 c0 -11 3 -14 6 -6 3 7 2 16 -1 19 -3 4 -6 -2 -5 -13z"/>
<path d="M4965 6229 c-166 -38 -289 -101 -382 -194 -157 -157 -200 -355 -127
-585 82 -260 248 -436 460 -486 87 -20 227 -14 334 16 240 67 399 208 455 404
40 138 0 363 -97 536 -80 145 -230 268 -373 306 -56 15 -209 17 -270 3z m195
-234 c124 -64 225 -223 267 -419 35 -165 -23 -305 -154 -371 -53 -27 -67 -30
-158 -30 -91 0 -104 2 -147 27 -97 58 -185 181 -239 339 -30 88 -31 225 -3
289 39 85 107 144 207 176 57 19 181 13 227 -11z"/>
<path d="M1853 5890 c5 -29 23 -45 30 -27 3 8 -3 21 -14 30 -18 16 -19 15 -16
-3z"/>
<path d="M1800 5870 c-9 -6 -10 -10 -3 -10 6 0 15 5 18 10 8 12 4 12 -15 0z"/>
<path d="M1793 5836 c-13 -6 -23 -14 -23 -19 0 -4 4 -5 10 -2 19 12 50 14 50
3 0 -6 2 -9 5 -6 7 7 -5 38 -14 37 -3 -1 -16 -6 -28 -13z"/>
<path d="M2715 5535 c-78 -14 -194 -46 -389 -107 -142 -45 -176 -68 -176 -122
0 -17 29 -121 65 -231 36 -110 111 -339 167 -509 112 -345 118 -356 191 -356
46 0 370 89 492 135 129 48 216 113 274 204 42 65 61 123 71 215 10 104 -2
195 -45 324 -119 357 -334 505 -650 447z m189 -239 c112 -66 209 -268 223
-466 11 -159 -33 -241 -161 -301 -90 -42 -256 -90 -261 -76 -2 7 -47 145 -100
307 -53 162 -109 335 -126 384 -16 49 -29 93 -29 97 0 10 50 29 167 60 136 37
218 35 287 -5z"/>
<path d="M8255 5186 c-84 -37 -121 -103 -94 -169 7 -17 70 -142 140 -277 147
-283 174 -352 165 -424 -21 -186 -312 -278 -419 -134 -13 18 -88 159 -166 313
-80 158 -153 290 -168 304 -73 65 -240 -40 -217 -137 4 -15 74 -161 156 -325
164 -329 196 -375 297 -424 50 -25 67 -28 151 -27 141 1 257 41 407 140 184
123 251 262 213 447 -18 85 -309 666 -352 702 -33 28 -67 31 -113 11z"/>
<path d="M1496 4923 c4 -16 10 -35 14 -43 4 -8 5 -20 3 -26 -5 -15 25 -26 33
-12 4 6 3 8 -4 4 -6 -3 -13 -2 -17 4 -3 5 -1 10 5 10 8 0 8 6 0 21 -11 19 -10
20 12 8 13 -6 20 -8 15 -4 -4 5 -1 18 8 31 14 21 13 22 -16 20 -17 -1 -32 1
-35 6 -12 19 -24 6 -18 -19z"/>
<path d="M1611 4910 c0 -8 4 -24 9 -35 5 -13 9 -14 9 -5 0 8 -4 24 -9 35 -5
13 -9 14 -9 5z"/>
<path d="M1630 4831 c0 -11 4 -22 9 -25 4 -3 6 6 3 19 -5 30 -12 33 -12 6z"/>
<path d="M1510 4801 c0 -5 6 -11 13 -14 8 -3 14 1 14 9 0 8 -6 14 -14 14 -7 0
-13 -4 -13 -9z"/>
<path d="M1471 4744 c0 -11 3 -14 6 -6 3 7 2 16 -1 19 -3 4 -6 -2 -5 -13z"/>
<path d="M1521 4574 c0 -11 3 -14 6 -6 3 7 2 16 -1 19 -3 4 -6 -2 -5 -13z"/>
<path d="M271 4474 c0 -11 3 -14 6 -6 3 7 2 16 -1 19 -3 4 -6 -2 -5 -13z"/>
<path d="M5952 4083 c-54 -26 -44 -6 -252 -501 -40 -95 -75 -170 -78 -167 -3
3 -39 87 -79 188 -49 122 -81 189 -98 205 -69 60 -225 -12 -225 -103 0 -19 21
-87 46 -152 190 -488 299 -763 315 -795 47 -93 217 -59 249 50 11 34 7 48 -44
174 -31 76 -56 145 -56 153 0 8 22 60 50 115 l50 99 222 -141 c123 -77 245
-154 272 -171 86 -53 180 -44 241 23 27 30 27 99 0 136 -12 16 -140 95 -315
195 -162 92 -299 170 -305 172 -5 2 36 98 93 213 56 115 102 217 102 227 0 27
-28 75 -49 87 -29 15 -102 12 -139 -7z"/>
<path d="M9588 3948 c-80 -121 -211 -273 -364 -425 -147 -145 -164 -165 -164
-195 0 -28 -32 -142 -65 -233 -5 -14 -4 -16 2 -7 6 7 19 14 30 15 13 1 19 7
16 18 -6 22 24 33 35 12 8 -13 13 -13 32 -3 16 9 25 9 33 1 14 -14 30 -14 22
-1 -3 6 -4 10 0 10 3 0 9 -10 14 -22 6 -18 12 -9 36 55 15 42 31 74 35 72 17
-11 57 -221 66 -343 8 -117 3 -132 -86 -252 -151 -203 -344 -362 -585 -483
-142 -70 -213 -92 -650 -198 -225 -55 -563 -137 -750 -184 -575 -142 -712
-174 -940 -225 -121 -27 -384 -88 -584 -135 -419 -98 -449 -105 -826 -185
-342 -72 -491 -101 -530 -104 -17 -2 -53 -10 -80 -19 -28 -8 -138 -37 -245
-63 -107 -26 -223 -55 -258 -65 -40 -12 -86 -17 -125 -15 -34 2 -44 1 -22 -2
l40 -5 -60 -13 -60 -13 65 5 c58 5 206 32 285 54 17 4 57 13 90 20 68 14 397
90 645 150 147 35 340 77 470 101 25 4 135 28 245 52 110 24 245 52 300 61
207 35 686 134 925 191 244 58 731 185 810 211 41 13 109 31 150 40 41 9 127
31 190 49 129 38 244 68 465 121 145 35 332 98 445 152 223 105 415 263 598
494 56 70 78 92 80 78 4 -25 -16 -62 -89 -161 -131 -178 -321 -336 -534 -446
-144 -74 -247 -110 -466 -162 -475 -112 -629 -149 -894 -214 -159 -38 -324
-78 -365 -87 -41 -10 -190 -45 -330 -78 -140 -34 -372 -89 -515 -122 -143 -34
-354 -84 -470 -111 -115 -28 -453 -104 -750 -170 -483 -108 -571 -129 -539
-129 12 0 135 24 254 50 52 12 124 26 160 32 36 5 72 14 80 18 9 4 44 11 79
15 35 4 78 13 95 20 17 7 58 16 91 20 60 7 83 12 395 80 91 20 237 51 325 70
88 18 210 45 270 59 215 50 247 57 252 52 7 -7 -53 -23 -462 -121 -444 -107
-788 -187 -1010 -235 -234 -51 -652 -150 -805 -190 -145 -38 -364 -85 -430
-93 -24 -3 -17 -4 22 -5 31 -1 68 2 81 7 25 10 56 16 150 31 32 5 64 13 70 18
25 20 208 51 341 58 120 6 135 9 110 19 -36 15 -34 16 136 49 69 13 139 30
155 38 24 11 315 14 1575 18 l1545 6 95 22 c221 52 337 93 500 178 320 167
593 449 749 778 61 126 147 382 159 473 6 37 11 176 11 308 2 223 18 459 40
555 10 46 17 57 29 46 7 -8 18 -319 22 -626 4 -317 18 -70 23 429 5 459 7 484
25 505 26 28 70 123 78 166 4 19 12 42 19 50 15 18 37 60 32 60 -2 0 -20 -24
-39 -52z m-300 -1374 c-48 -80 -166 -219 -245 -290 -143 -127 -356 -255 -531
-318 -67 -24 -194 -56 -647 -165 -93 -23 -374 -91 -624 -151 -250 -61 -457
-110 -460 -109 -6 0 36 20 54 25 6 1 24 7 40 13 17 6 82 24 145 40 244 61 910
231 1005 256 55 14 118 30 140 34 78 16 211 53 242 67 17 8 35 14 40 14 17 0
247 96 298 124 28 16 66 40 85 55 19 15 46 34 60 43 95 59 269 234 385 386 50
66 58 50 13 -24z m-2518 -1034 c0 -5 -8 -10 -17 -10 -15 0 -16 2 -3 10 19 12
20 12 20 0z m-57 -17 c-7 -2 -19 -2 -25 0 -7 3 -2 5 12 5 14 0 19 -2 13 -5z"/>
<path d="M4140 3860 c-16 -8 -349 -113 -590 -185 -328 -98 -900 -250 -1243
-330 -126 -30 -230 -55 -231 -57 -6 -7 226 -774 279 -923 92 -259 184 -413
331 -557 305 -296 698 -399 1175 -308 177 33 572 145 991 280 l97 31 -19 47
c-10 26 -65 160 -121 297 -122 301 -228 573 -356 915 -163 434 -203 541 -243
658 -48 138 -51 143 -70 132z m-523 -556 c113 -31 193 -132 193 -245 0 -72
-14 -107 -69 -176 l-41 -53 64 0 c96 0 164 -29 224 -95 58 -63 82 -124 82
-206 0 -179 -153 -333 -410 -414 -256 -80 -473 -18 -561 161 -62 125 -35 255
72 347 27 23 49 45 49 50 0 4 -22 7 -48 7 -109 0 -210 67 -247 163 -33 88 -7
205 63 281 70 74 221 152 353 180 127 27 178 27 276 0z"/>
<path d="M3335 3116 c-129 -40 -185 -120 -151 -211 40 -104 152 -132 281 -70
64 31 97 74 102 134 6 63 -21 109 -77 139 -49 24 -95 27 -155 8z"/>
<path d="M3508 2666 c-167 -46 -227 -196 -126 -312 46 -52 83 -68 158 -68 160
1 273 113 241 239 -16 63 -36 91 -85 120 -52 30 -127 39 -188 21z"/>
<path d="M9004 3318 l-19 -23 23 19 c12 11 22 21 22 23 0 8 -8 2 -26 -19z"/>
<path d="M8641 3064 c-338 -223 -955 -547 -1806 -947 -391 -183 -1164 -517
-1400 -604 -176 -65 -540 -196 -617 -223 -37 -13 -66 -25 -64 -28 5 -4 149 42
291 93 55 20 165 58 245 85 195 65 379 131 532 191 70 28 217 73 325 100 399
100 514 132 503 139 -9 6 -9 9 -1 15 7 4 18 2 25 -4 11 -9 14 -8 12 6 -1 14 5
17 23 15 13 -2 27 1 31 7 3 6 17 14 31 17 13 3 31 7 39 8 8 2 14 8 13 13 -1 5
23 10 53 11 30 1 62 6 72 11 9 5 28 11 42 12 14 2 32 12 41 22 19 20 35 22 42
5 3 -7 6 -3 6 10 1 24 21 31 21 7 0 -13 3 -14 23 -2 12 8 42 15 67 16 25 2 47
7 48 12 2 5 15 9 28 9 14 0 27 7 30 15 4 8 10 12 15 9 5 -3 9 0 9 6 0 6 4 9 9
5 5 -3 13 0 16 6 4 5 13 8 21 5 8 -3 14 -1 14 5 0 6 4 8 9 4 5 -3 12 -1 15 4
3 4 19 7 36 5 19 -2 29 0 25 6 -6 9 11 13 58 13 9 0 17 3 17 7 0 12 69 42 80
35 6 -3 13 0 16 9 3 8 14 13 25 11 10 -2 19 1 19 6 0 6 4 7 10 4 6 -3 7 1 4 9
-5 12 1 16 21 16 17 0 24 -4 19 -12 -5 -7 -3 -8 5 -4 7 5 10 14 7 22 -3 9 1
14 14 14 10 0 25 7 34 15 8 8 20 15 26 15 6 0 8 5 4 11 -4 8 0 8 15 0 17 -9
20 -9 15 3 -4 10 0 15 13 14 10 0 34 7 53 15 19 9 31 16 26 17 -13 0 -377 -78
-449 -96 -33 -8 -64 -13 -69 -12 -6 2 45 17 113 33 75 19 133 38 149 51 14 12
58 38 98 59 39 21 72 42 72 47 0 4 6 8 14 8 7 0 24 8 37 18 31 23 82 45 74 32
-3 -5 -1 -10 4 -10 6 0 16 9 23 20 7 11 20 20 29 20 24 0 79 30 91 50 7 10 19
15 29 13 11 -3 21 1 25 10 4 12 14 15 34 11 17 -4 31 -1 35 7 6 8 4 10 -6 4
-12 -8 -12 -6 0 8 7 9 19 17 25 17 6 0 19 9 29 20 9 11 23 20 30 20 8 0 19 12
26 26 7 16 17 24 25 21 8 -3 16 2 19 14 3 11 10 18 16 17 6 -2 21 15 34 37 12
22 33 45 45 51 13 6 22 15 21 19 -3 11 24 45 32 40 3 -3 9 8 12 24 3 16 13 36
22 44 9 9 16 19 15 22 -1 26 2 35 10 30 6 -3 10 -2 10 4 0 5 15 14 33 20 19 6
43 25 56 41 12 17 20 30 19 30 -2 -1 -41 -26 -87 -56z m-1234 -830 c-3 -3 -12
-4 -19 -1 -8 3 -5 6 6 6 11 1 17 -2 13 -5z"/>
<path d="M7800 2890 c-9 -6 -10 -10 -3 -10 6 0 15 5 18 10 8 12 4 12 -15 0z"/>
<path d="M7707 2841 c-45 -29 -45 -35 1 -12 23 12 42 24 42 26 0 9 -14 4 -43
-14z"/>
<path d="M7980 2360 c-20 -6 -21 -8 -5 -8 11 0 31 4 45 8 20 6 21 8 5 8 -11 0
-31 -4 -45 -8z"/>
<path d="M890 2075 c0 -35 136 -293 148 -281 2 3 -16 41 -42 85 -25 44 -55
104 -66 133 -26 70 -40 90 -40 63z"/>
<path d="M1050 1764 c0 -6 7 -19 15 -30 8 -10 14 -14 14 -9 0 6 -6 19 -14 29
-8 11 -15 15 -15 10z"/>
<path d="M1178 1585 c5 -11 20 -29 33 -40 22 -20 22 -20 11 0 -5 11 -20 29
-33 40 -22 20 -22 20 -11 0z"/>
<path d="M2350 1356 c0 -2 8 -10 18 -17 15 -13 16 -12 3 4 -13 16 -21 21 -21
13z"/>
<path d="M2353 1293 c9 -14 87 -77 87 -70 0 3 -21 22 -47 43 -26 21 -44 33
-40 27z"/>
<path d="M4650 1235 c-19 -7 -28 -13 -20 -13 8 0 31 6 50 13 19 7 28 13 20 13
-8 0 -31 -6 -50 -13z"/>
<path d="M2580 1195 c0 -7 141 -77 146 -73 2 2 -30 21 -71 41 -41 20 -75 35
-75 32z"/>
<path d="M2560 1146 c0 -3 9 -10 20 -16 11 -6 20 -8 20 -6 0 3 -9 10 -20 16
-11 6 -20 8 -20 6z"/>
<path d="M1111 1117 c2 -43 95 -159 175 -221 134 -102 220 -145 447 -222 182
-62 427 -97 427 -61 0 10 -52 49 -70 52 -14 2 -107 51 -118 61 -6 7 -21 16
-32 19 -11 3 -20 10 -20 15 0 5 -14 17 -32 26 -17 9 -60 39 -95 66 -35 28 -81
60 -103 72 -21 11 -63 38 -94 60 -53 36 -141 74 -231 97 -22 6 -47 13 -55 16
-24 10 -42 13 -100 18 -30 3 -65 7 -77 9 -14 3 -23 0 -22 -7z"/>
<path d="M2610 1115 c0 -7 121 -67 126 -63 2 2 -26 18 -61 36 -36 17 -65 30
-65 27z"/>
<path d="M2760 1105 c14 -8 30 -14 35 -14 6 0 -1 6 -15 14 -14 8 -29 14 -35
14 -5 0 1 -6 15 -14z"/>
<path d="M2580 1076 c0 -3 14 -12 30 -21 17 -9 30 -13 30 -11 0 3 -13 12 -30
21 -16 9 -30 13 -30 11z"/>
<path d="M2880 1060 c8 -5 22 -9 30 -9 10 0 8 3 -5 9 -27 12 -43 12 -25 0z"/>
<path d="M2760 1040 c8 -5 20 -10 25 -10 6 0 3 5 -5 10 -8 5 -19 10 -25 10 -5
0 -3 -5 5 -10z"/>
<path d="M2938 1043 c7 -3 16 -2 19 1 4 3 -2 6 -13 5 -11 0 -14 -3 -6 -6z"/>
<path d="M2978 1033 c7 -3 16 -2 19 1 4 3 -2 6 -13 5 -11 0 -14 -3 -6 -6z"/>
<path d="M4305 1033 c-11 -2 -117 -28 -235 -58 -279 -69 -354 -83 -538 -96
-154 -10 -353 -1 -447 21 -22 5 -51 9 -65 9 -14 -1 20 -11 75 -22 84 -18 133
-22 300 -22 277 1 387 18 810 130 77 20 142 39 144 41 5 5 -17 3 -44 -3z"/>
<path d="M2710 1005 c25 -13 50 -24 55 -24 6 0 -10 11 -35 24 -25 13 -49 24
-55 24 -5 0 10 -11 35 -24z"/>
<path d="M3060 1009 c31 -13 205 -39 245 -38 17 1 -10 7 -60 14 -49 7 -114 17
-143 24 -63 13 -76 13 -42 0z"/>
<path d="M2860 1005 c0 -6 129 -45 149 -44 9 0 -20 11 -64 24 -91 28 -85 26
-85 20z"/>
<path d="M2800 967 c36 -22 145 -57 172 -56 13 0 -17 13 -67 28 -49 16 -99 31
-110 35 -12 4 -10 1 5 -7z"/>
<path d="M3403 963 c31 -2 83 -2 115 0 31 2 5 3 -58 3 -63 0 -89 -1 -57 -3z"/>
<path d="M3038 953 c7 -3 16 -2 19 1 4 3 -2 6 -13 5 -11 0 -14 -3 -6 -6z"/>
<path d="M3105 939 c22 -4 51 -8 65 -7 16 0 11 3 -15 9 -22 4 -51 8 -65 7 -16
0 -11 -3 15 -9z"/>
<path d="M2907 870 c101 -49 192 -68 372 -81 167 -12 346 -6 335 12 -3 5 -77
9 -166 9 -175 0 -315 17 -461 55 -141 37 -146 37 -80 5z"/>
<path d="M1918 373 c6 -2 18 -2 25 0 6 3 1 5 -13 5 -14 0 -19 -2 -12 -5z"/>
<path d="M8085 360 l-60 -7 50 -1 c28 0 70 3 95 7 40 8 41 8 10 8 -19 0 -62
-3 -95 -7z"/>
<path d="M2083 353 c9 -2 25 -2 35 0 9 3 1 5 -18 5 -19 0 -27 -2 -17 -5z"/>
<path d="M2208 343 c12 -2 32 -2 45 0 12 2 2 4 -23 4 -25 0 -35 -2 -22 -4z"/>
<path d="M2748 333 c210 -2 554 -2 765 0 210 1 38 2 -383 2 -421 0 -593 -1
-382 -2z"/>
<path d="M4048 333 c57 -2 147 -2 200 0 53 1 7 3 -103 3 -110 0 -154 -2 -97
-3z"/>
<path d="M4513 333 c87 -2 227 -2 310 0 84 1 13 3 -158 3 -170 0 -239 -2 -152
-3z"/>
<path d="M5338 333 c172 -2 451 -2 620 0 169 1 28 2 -313 2 -341 0 -479 -1
-307 -2z"/>
<path d="M6493 333 c125 -2 329 -2 455 0 125 1 22 2 -228 2 -250 0 -353 -1
-227 -2z"/>
</g>
</svg>
